:SAMPLES-PER-SECOND 30
:FULLY-SPECIFIED
:DEGREES
70
root  72.2988 38.9397 4.69065 -77.4187 84.6771 -74.9904
RightUpLeg  2.76852 2.37227 9.61195
RightLeg  14.0621 9.06897 -0.335268
RightFoot  -10.4596 0.11125 -4.84539
RightToes  -9.02219e-009 -1.59028e-015 9.93923e-017
Spine  -1.58992 1.62527 13.9923
Spine1  10.0099 2.98236 -5.02655
HEad  -13.8309 -12.0209 5.77076
LeftShoulder1  9.93923e-017 0 1.22299e-017
LeftArm  -12.5648 54.2319 -67.4477
LeftForeArm  3.51671 -1.76165 -5.10017
LeftHand  1.13234 9.4907 -9.67262
RightShoulder  1.98785e-016 -4.96962e-017 1.55301e-017
RightArm  18.2679 -8.86216 84.4318
RightForeArm  -36.9039 33.8431 -30.2422
RightHand  1.59382 -12.3538 -8.46945
LeftUpLeg  -26.5717 -2.14139 4.72472
LeftLeg  35.3628 -8.26969 1.75343
LeftFoot  7.89854 1.08363 -5.63121
LeftToes  7.69435e-010 2.06924e-010 1.0715e-010
71
root  73.9681 38.8753 4.79071 -62.4036 84.2831 -60.5238
RightUpLeg  5.82325 2.16445 9.24283
RightLeg  12.2944 10.6686 0.0453967
RightFoot  -11.3412 0.0745673 -4.88447
RightToes  -9.02219e-009 -1.59028e-015 9.93923e-017
Spine  -2.01293 2.51523 14.1855
Spine1  10.5942 3.91823 -6.04911
HEad  -15.0099 -13.3498 6.41579
LeftShoulder1  9.93923e-017 0 1.22299e-017
LeftArm  -4.57451 59.4988 -60.1823
LeftForeArm  2.74492 -2.05704 -5.48856
LeftHand  1.10555 8.63296 -8.09671
RightShoulder  1.98785e-016 -4.96962e-017 1.55301e-017
RightArm  18.6728 -2.66317 83.1039
RightForeArm  -35.9795 36.6652 -32.735
RightHand  1.70794 -12.6179 -9.69275
LeftUpLeg  -26.8628 -2.10855 4.85743
LeftLeg  21.906 -6.42933 0.90303
LeftFoot  7.73394 1.12396 -5.88874
LeftToes  7.69435e-010 2.06924e-010 1.0715e-010
72
root  75.6514 38.7797 4.85957 -52.407 83.8683 -51.0348
RightUpLeg  8.82202 1.85958 8.60264
RightLeg  10.6697 12.1405 0.385664
RightFoot  -11.9042 0.0459353 -4.40769
RightToes  -9.02219e-009 -1.59028e-015 9.93923e-017
Spine  -2.49512 3.16752 14.096
Spine1  11.4114 4.71106 -6.94647
HEad  -15.5343 -14.9787 6.93901
LeftShoulder1  9.93923e-017 0 1.22299e-017
LeftArm  2.4457 63.2543 -52.5659
LeftForeArm  3.3779 -2.09439 -5.49445
LeftHand  1.0879 8.2551 -7.4897
RightShoulder  1.98785e-016 -4.96962e-017 1.55301e-017
RightArm  18.5349 1.99412 81.9588
RightForeArm  -35.1414 38.646 -34.6504
RightHand  1.79051 -12.8104 -10.5071
LeftUpLeg  -26.2322 -1.62776 4.31228
LeftLeg  7.9638 -5.6678 0.328514
LeftFoot  7.02122 1.21667 -6.62872
LeftToes  7.69435e-010 2.06924e-010 1.0715e-010
73
root  77.4111 38.5955 4.86649 -46.728 83.4739 -45.6129
RightUpLeg  11.5701 1.43184 7.8396
RightLeg  10.3045 13.7289 0.734288
RightFoot  -12.2311 0.025171 -3.34274
RightToes  -9.02219e-009 -1.59028e-015 9.93923e-017
Spine  -2.61007 3.5374 14.4166
Spine1  12.0246 5.46362 -8.09223
HEad  -15.7527 -16.8843 7.57653
LeftShoulder1  9.93923e-017 0 1.22299e-017
LeftArm  7.41422 65.3528 -45.5097
LeftForeArm  4.31232 -1.87228 -5.21508
LeftHand  1.10986 8.77245 -8.42309
RightShoulder  1.98785e-016 -4.96962e-017 1.55301e-017
RightArm  17.5978 4.56483 81.1353
RightForeArm  -34.6707 40.0832 -36.1217
RightHand  1.82971 -12.9017 -10.8759
LeftUpLeg  -25.7188 -0.628551 3.36622
LeftLeg  -1.40458 -5.70777 -0.0781966
LeftFoot  4.3048 1.22949 -7.83418
LeftToes  7.69435e-010 2.06924e-010 1.0715e-010
74
root  79.2872 38.3466 4.82191 -42.1252 83.3379 -41.3312
RightUpLeg  13.8295 1.16821 6.80525
RightLeg  11.146 15.2668 1.0769
RightFoot  -12.2012 0.0144967 -1.77342
RightToes  -9.02219e-009 -1.59028e-015 9.93923e-017
Spine  -3.02941 3.74919 14.651
Spine1  12.6614 6.1296 -9.40113
HEad  -15.531 -18.5167 8.11717
LeftShoulder1  9.93923e-017 0 1.22299e-017
LeftArm  9.87322 66.2049 -40.3416
LeftForeArm  5.04813 -1.55682 -4.7076
LeftHand  1.1459 9.63954 -9.50617
RightShoulder  1.98785e-016 -4.96962e-017 1.55301e-017
RightArm  16.2341 4.8731 80.8012
RightForeArm  -35.0098 41.3816 -37.4625
RightHand  1.87842 -12.9834 -11.4219
LeftUpLeg  -26.3116 -0.852833 2.68932
LeftLeg  -2.80799 -5.02248 -0.428521
LeftFoot  1.50454 1.11023 -8.37188
LeftToes  7.69435e-010 2.06924e-010 1.0715e-010
75
root  81.3034 38.0351 4.74899 -33.3968 83.4883 -33.1567
RightUpLeg  15.2188 1.04369 4.86141
RightLeg  13.5878 16.7397 1.88452
RightFoot  -11.8234 -0.000702845 0.571313
RightToes  -9.02219e-009 -1.59028e-015 9.93923e-017
Spine  -4.24251 4.0343 13.7083
Spine1  13.5281 6.58639 -10.0466
HEad  -14.677 -19.7302 8.22158
LeftShoulder1  9.93923e-017 0 1.22299e-017
LeftArm  10.0971 66.4912 -38.1067
LeftForeArm  4.72889 -1.34546 -4.2279
LeftHand  1.18228 10.1649 -9.2856
RightShoulder  1.98785e-016 -4.96962e-017 1.55301e-017
RightArm  15.0792 3.09489 80.9923
RightForeArm  -35.9392 42.6233 -38.7677
RightHand  1.94903 -13.0703 -12.2959
LeftUpLeg  -27.4787 -1.8448 1.48236
LeftLeg  1.38987 -4.31579 0.174452
LeftFoot  2.59161 0.978606 -6.93412
LeftToes  7.69435e-010 2.06924e-010 1.0715e-010
76
root  83.3991 37.6838 4.66667 -18.102 83.5467 -18.156
RightUpLeg  15.485 0.50227 1.54074
RightLeg  18.6422 18.5348 3.5787
RightFoot  -9.7434 -0.105736 3.58765
RightToes  -9.02219e-009 -1.59028e-015 9.93923e-017
Spine  -5.19157 4.43228 11.2703
Spine1  14.0978 6.83694 -9.58554
HEad  -14.0209 -20.9538 8.34068
LeftShoulder1  9.93923e-017 0 1.22299e-017
LeftArm  7.93887 66.2941 -39.6088
LeftForeArm  3.18852 -1.27571 -4.05488
LeftHand  1.21206 10.2119 -8.26466
RightShoulder  1.98785e-016 -4.96962e-017 1.55301e-017
RightArm  14.3779 -0.548231 81.5537
RightForeArm  -36.4544 43.3289 -39.553
RightHand  1.99302 -13.182 -12.6302
LeftUpLeg  -28.4171 -4.68995 0.532147
LeftLeg  7.71606 -1.98965 1.38946
LeftFoot  7.06305 0.700432 -3.86223
LeftToes  7.69435e-010 2.06924e-010 1.0715e-010
77
root  85.4005 37.3778 4.58934 0.172668 83.2264 0.579468
RightUpLeg  14.2401 -0.07891 -2.37285
RightLeg  26.889 19.635 5.71502
RightFoot  -3.33619 -0.530056 6.18749
RightToes  -9.02219e-009 -1.59028e-015 9.93923e-017
Spine  -4.52983 4.67407 8.18081
Spine1  14.0445 6.96743 -9.03279
HEad  -14.3861 -22.1201 8.90117
LeftShoulder1  9.93923e-017 0 1.22299e-017
LeftArm  2.72592 64.8425 -45.2163
LeftForeArm  1.59002 -1.27168 -4.10448
LeftHand  1.20937 10.0425 -7.9396
RightShoulder  1.98785e-016 -4.96962e-017 1.55301e-017
RightArm  13.8894 -5.64943 82.5622
RightForeArm  -35.5133 42.682 -38.8856
RightHand  1.94845 -13.2079 -11.8332
LeftUpLeg  -28.8333 -7.7965 -0.567206
LeftLeg  14.6821 0.682659 2.70119
LeftFoot  9.61688 0.182694 -0.736832
LeftToes  7.69435e-010 2.06924e-010 1.0715e-010
78
root  87.1771 37.1277 4.51542 14.8522 82.5999 16.1769
RightUpLeg  11.044 0.309651 -5.35733
RightLeg  37.3057 18.3097 6.90529
RightFoot  7.40303 -1.47381 8.10204
RightToes  -9.02219e-009 -1.59028e-015 9.93923e-017
Spine  -2.97519 4.47219 5.51809
Spine1  14.5604 6.81565 -9.39524
HEad  -15.9853 -21.8439 9.69858
LeftShoulder1  9.93923e-017 0 1.22299e-017
LeftArm  -5.01654 61.3175 -53.7382
LeftForeArm  0.703314 -1.28629 -4.18547
LeftHand  1.17282 9.73012 -8.56492
RightShoulder  1.98785e-016 -4.96962e-017 1.55301e-017
RightArm  13.8595 -10.8551 84.4532
RightForeArm  -33.3596 40.0509 -36.1873
RightHand  1.83539 -13.0587 -10.4721
LeftUpLeg  -28.6012 -8.62161 -2.8197
LeftLeg  21.2907 1.21763 4.25077
LeftFoot  7.37457 -0.245435 1.50208
LeftToes  7.69435e-010 2.06924e-010 1.0715e-010
